Coordinates
version=1
nRows=18
nColumns=22
inDegrees=yes

Units are S.I. units (second, meters, Newtons, ...)
If the header above contains a line with 'inDegrees', this indicates whether rotational values are in degrees (yes) or radians (no).

endheader
time	pelvis_tilt	pelvis_list	pelvis_rotation	pelvis_tx	pelvis_ty	pelvis_tz	hip_flexion_r	hip_adduction_r	hip_rotation_r	knee_angle_r	ankle_angle_r	subtalar_angle_r	hip_flexion_l	hip_adduction_l	hip_rotation_l	knee_angle_l	ankle_angle_l	subtalar_angle_l	lumbar_extension	lumbar_bending	lumbar_rotation
      0.99000000	      4.94628680	     -5.59110805	     25.96745505	     -0.22315061	      0.93110200	      0.50369882	      0.34904217	      5.11780682	     -3.82638031	    -18.95656859	     14.69981461	      2.44122586	     27.57541808	     -3.13610758	      1.50200656	    -61.93064114	     -0.67688813	     -0.12989030	    -14.37278491	      4.66402152	      1.32859318
      1.00000000	      4.93729048	     -5.44590768	     26.30538039	     -0.21595459	      0.93101632	      0.49986658	     -0.64700271	      4.99706614	     -4.09692609	    -18.28836364	     14.92219008	      2.51425451	     28.11591649	     -3.05647660	      0.98571265	    -59.53611473	      0.09074713	      0.06186550	    -14.36562443	      4.46786173	      1.98108286
      1.01000000	      4.89504104	     -5.31860098	     26.66576518	     -0.20880521	      0.93073549	      0.49592401	     -1.59074477	      4.88125547	     -4.39296920	    -17.64464637	     15.14530563	      2.61243229	     28.59832808	     -2.99347776	      0.52553337	    -56.94553812	      0.70663521	      0.21255075	    -14.31438145	      4.27792769	      2.55213754
      1.02000000	      4.81114190	     -5.22643351	     27.03945148	     -0.20171107	      0.93020142	      0.49188044	     -2.44058981	      4.77779280	     -4.73459548	    -17.07413339	     15.39989744	      2.71098542	     29.04347656	     -2.95537802	      0.13728971	    -54.18107072	      1.24205511	      0.31299812	    -14.20588704	      4.10815626	      3.07878053
      1.03000000	      4.72172380	     -5.15264976	     27.44647539	     -0.19464240	      0.92949821	      0.48769929	     -3.27836111	      4.69914696	     -5.07629172	    -16.50877565	     15.64463358	      2.82277771	     29.40321301	     -2.92958130	     -0.14652412	    -51.24270054	      1.64164849	      0.37017953	    -14.08044340	      3.96100167	      3.51365102
      1.04000000	      4.62925896	     -5.11001612	     27.87808785	     -0.18758126	      0.92859562	      0.48340654	     -4.08953661	      4.65825555	     -5.42206215	    -15.97066804	     15.89266583	      2.94047840	     29.68786801	     -2.93946406	     -0.33399512	    -48.15790993	      1.95171967	      0.36730406	    -13.93368103	      3.84449857	      3.86860650
      1.05000000	      4.55168613	     -5.10765287	     28.32895896	     -0.18050905	      0.92751081	      0.47901896	     -4.89645423	      4.67692135	     -5.74651854	    -15.44022772	     16.13743955	      3.06779791	     29.89452844	     -3.00974614	     -0.43374313	    -44.95841433	      2.15884128	      0.26937578	    -13.77893004	      3.77596923	      4.15885833
      1.06000000	      4.46445309	     -5.15046775	     28.78678123	     -0.17338569	      0.92618426	      0.47454714	     -5.65199502	      4.73858566	     -6.11144373	    -14.95778965	     16.37994092	      3.16448185	     30.06100474	     -3.15473319	     -0.51505883	    -41.68981833	      2.33893952	      0.08101459	    -13.57857727	      3.74105225	      4.39302859
      1.07000000	      4.40828683	     -5.23771531	     29.24365506	     -0.16618597	      0.92469522	      0.47002261	     -6.42291146	      4.87388196	     -6.42496904	    -14.47044503	     16.60432607	      3.25910031	     30.16172400	     -3.40437464	     -0.62208246	    -38.39618074	      2.43893076	     -0.24220908	    -13.37681912	      3.75566232	      4.58469283
      1.08000000	      4.38125889	     -5.36789438	     29.67597780	     -0.15890747	      0.92304060	      0.46546210	     -7.19502881	      5.07120374	     -6.68963307	    -13.99748936	     16.81410350	      3.34930479	     30.21961296	     -3.77546555	     -0.86424001	    -35.14578651	      2.50574263	     -0.70306772	    -13.17232390	      3.81763409	      4.76399202
      1.09000000	      4.37700327	     -5.54046207	     30.05929482	     -0.15150171	      0.92122569	      0.46091440	     -7.95972328	      5.32384693	     -6.88946700	    -13.54516513	     17.00971643	      3.43522280	     30.25968187	     -4.27709446	     -1.34982725	    -32.01177587	      2.57486979	     -1.25593971	    -12.95536137	      3.90996362	      4.96047517
      1.10000000	      4.39269095	     -5.74558741	     30.38598671	     -0.14398325	      0.91926710	      0.45634361	     -8.71503193	      5.61049110	     -7.03169726	    -13.12233861	     17.20136080	      3.52875619	     30.30170734	     -4.88610967	     -2.15876342	    -29.07448249	      2.69040842	     -1.84082693	    -12.72818429	      4.02887703	      5.17676980
      1.11000000	      4.41295973	     -5.96351165	     30.64572018	     -0.13633806	      0.91719782	      0.45172262	     -9.45578505	      5.89658839	     -7.12335932	    -12.73495069	     17.38227954	      3.63094109	     30.35283256	     -5.55847927	     -3.34135573	    -26.39058196	      2.85787473	     -2.31397959	    -12.48349065	      4.14581336	      5.43011459
      1.12000000	      4.45548448	     -6.13738936	     30.87971729	     -0.12857033	      0.91512137	      0.44689574	    -10.25974442	      6.13836982	     -7.21184809	    -12.33619979	     17.53727440	      3.78760075	     30.36184949	     -6.19967469	     -4.85239253	    -24.00237572	      3.12436249	     -2.79999203	    -12.26221390	      4.23086230	      5.63379211
      1.13000000	      4.47849114	     -6.30597180	     31.03687229	     -0.12070333	      0.91299705	      0.44194712	    -11.02289683	      6.33276004	     -7.22694601	    -12.00293751	     17.67586878	      3.96807428	     30.40433192	     -6.83124124	     -6.67593229	    -21.98870734	      3.43685819	     -3.01348370	    -12.01141464	      4.29183395	      5.90135670
      1.14000000	      4.48938469	     -6.44366911	     31.16532230	     -0.11275965	      0.91088873	      0.43676956	    -11.77550233	      6.46278427	     -7.23700998	    -11.72042223	     17.76976221	      4.19970657	     30.45728400	     -7.39166462	     -8.64955618	    -20.37634850	      3.79796845	     -3.08656599	    -11.74878056	      4.31993450	      6.16404821
      1.15000000	      4.46775060	     -6.56557016	     31.27736806	     -0.10473686	      0.90879086	      0.43135744	    -12.48415737	      6.53486911	     -7.20744337	    -11.50103380	     17.82690354	      4.46782544	     30.55381214	     -7.87656322	    -10.63183093	    -19.20026555	      4.15213191	     -3.05940733	    -11.44011534	      4.31783829	      6.41363512
      1.16000000	      4.40993805	     -6.66812490	     31.38607591	     -0.09665473	      0.90674029	      0.42572123	    -13.13674746	      6.54697828	     -7.15609606	    -11.35784441	     17.82203746	      4.78043873	     30.70142832	     -8.28786483	    -12.52504592	    -18.48374277	      4.45844456	     -3.03343980	    -11.09350391	      4.27769171	      6.63989636
